<svg height="48" viewBox="0 0 48 48" width="48" xmlns="http://www.w3.org/2000/svg"><path clip-rule="evenodd" d="M44.93 14.39a.955.955 0 0 1-.184.277L16.84 42.572a.95.95 0 0 1-.475.434l-13.852 3.88c-.03.014-.062.016-.094.026l-.048.014c-.008.003-.017 0-.024.004a1.06 1.06 0 0 1-.286.045.926.926 0 0 1-.282-.04c-.02-.007-.04-.003-.06-.01-.01-.003-.014-.01-.022-.013a.94.94 0 0 1-.24-.14c-.04-.03-.08-.054-.113-.087s-.058-.074-.086-.113a.952.952 0 0 1-.142-.24c-.004-.008-.01-.013-.013-.02-.007-.02-.003-.04-.01-.062a.985.985 0 0 1-.04-.28c0-.1.02-.194.045-.288.004-.008 0-.016.004-.023l.014-.05c.01-.03.013-.063.026-.093l3.88-13.852c.082-.216.246-.364.434-.475l27.48-27.48c.04-.045.086-.083.127-.127l.3-.3c.014-.014.033-.02.05-.033C34.857 1.87 36.794 1 38.952 1A8.047 8.047 0 0 1 47 9.047c0 2.06-.795 3.922-2.07 5.344zm-3.78 1.11l-3.62-3.62-23.64 23.642c.005.008.015.01.02.02l2.372 4.826L41.15 15.5zM3.56 44.473l2.784-.78-2.006-2.004-.78 2.783zm1.383-4.943L8.5 43.09l6.12-1.716S12.036 36.002 12.03 36l-5.373-2.59-1.714 6.12zm7.547-5.406c.008.004.01.013.02.018L36.15 10.5l-3.62-3.62L7.664 31.75l4.827 2.374zM38.922 3c-1.782 0-3.372.776-4.49 1.994l-.006-.007-.514.513 8.62 8.62.526-.53-.006-.005c1.21-1.116 1.98-2.7 1.98-4.476A6.11 6.11 0 0 0 38.92 3z" fill-rule="evenodd"/></svg>